<svg xmlns="http://www.w3.org/2000/svg"
      viewBox="0 0 22 36"
      shape-rendering="crispEdges"
      preserveAspectRatio="xMidYMax meet"
      aria-label="Slaver Overseer"
    >
      <!-- Warm torchlit backlight + ground shadow -->
      <ellipse cx="11" cy="18" rx="11" ry="16" fill="#b03a2a" opacity="0.15" />
      <ellipse cx="11" cy="35" rx="7" ry="1.3" fill="#000" opacity="0.4" />

      <!-- Red helm plume -->
      <polygon points="9,-2 11,-4 13,-2" fill="#8c1818" />
      <rect x="10" y="-2" width="2" height="3" fill="#b5302c" />
      <rect x="10" y="-2" width="1" height="3" fill="#d8504a" />

      <!-- Black helm — steel ramp + specular -->
      <rect x="6" y="0" width="10" height="2" fill="#0a0808" />
      <rect x="6" y="1" width="10" height="5" fill="#1a1410" />
      <rect x="6" y="1" width="10" height="1" fill="#3a3228" />
      <rect x="6" y="1" width="2" height="5" fill="#2a221c" />
      <rect x="6" y="1" width="1" height="3" fill="#4a4038" />
      <rect x="5" y="5" width="12" height="1" fill="#3a2418" />
      <rect x="7" y="1" width="3" height="1" fill="#5a5048" opacity="0.7" />

      <!-- Tan face under the brim -->
      <rect x="7" y="6" width="8" height="4" fill="#a87838" />
      <rect x="7" y="6" width="8" height="1" fill="#5a3c1c" />
      <rect x="7" y="7" width="8" height="1" fill="#5a3c1c" opacity="0.55" />
      <rect x="7" y="6" width="2" height="4" fill="#b8884a" />
      <rect x="14" y="6" width="1" height="4" fill="#7a5226" />
      <rect x="8" y="7" width="2" height="1" fill="#1a1410" />
      <rect x="12" y="7" width="2" height="1" fill="#1a1410" />
      <rect x="8" y="7" width="1" height="1" fill="#e8dcc4" />
      <rect x="13" y="7" width="1" height="1" fill="#e8dcc4" />
      <rect x="9" y="9" width="4" height="1" fill="#3a2010" />
      <rect x="8" y="10" width="6" height="1" fill="#a87838" />

      <!-- Red shoulder sash -->
      <polygon points="4,12 11,11 18,12 18,14 4,14" fill="#8c1818" />
      <polygon points="4,12 11,11 18,12 18,13 4,13" fill="#b5302c" opacity="0.7" />
      <polygon points="4,12 11,11 11,12 4,13" fill="#d8504a" opacity="0.4" />

      <!-- Pauldrons — steel ramp + specular -->
      <rect x="2" y="11" width="4" height="5" fill="#0a0808" />
      <rect x="16" y="11" width="4" height="5" fill="#0a0808" />
      <rect x="2" y="11" width="4" height="1" fill="#5a5048" />
      <rect x="16" y="11" width="4" height="1" fill="#5a5048" />
      <rect x="3" y="12" width="2" height="3" fill="#3a3228" />
      <rect x="17" y="12" width="2" height="3" fill="#3a3228" />
      <rect x="3" y="11" width="1" height="1" fill="#7a7068" />
      <rect x="17" y="11" width="1" height="1" fill="#6a6058" />

      <!-- Cuirass — steel ramp, lit ridge, gold boss -->
      <rect x="5" y="14" width="12" height="11" fill="#0a0808" />
      <rect x="5" y="14" width="12" height="1" fill="#5a5048" />
      <rect x="5" y="24" width="12" height="1" fill="#5a5048" />
      <rect x="6" y="15" width="2" height="8" fill="#2a221c" opacity="0.7" />
      <rect x="14" y="15" width="2" height="8" fill="#2a221c" opacity="0.7" />
      <rect x="5" y="14" width="1" height="11" fill="#3a3228" opacity="0.7" />
      <circle cx="11" cy="18" r="3" fill="#8c6232" />
      <circle cx="11" cy="18" r="2" fill="#d4a850" />
      <rect x="10" y="17" width="1" height="1" fill="#f4d870" />
      <rect x="10" y="17" width="2" height="2" fill="#5a3c1c" />
      <rect x="11" y="16" width="1" height="3" fill="#8c6232" />

      <!-- Upper arms — red + steel -->
      <rect x="3" y="15" width="3" height="6" fill="#8c1818" />
      <rect x="16" y="15" width="3" height="6" fill="#8c1818" />
      <rect x="3" y="15" width="1" height="6" fill="#b5302c" />
      <rect x="18" y="15" width="1" height="6" fill="#5a1208" />
      <rect x="3" y="20" width="3" height="3" fill="#0a0808" />
      <rect x="16" y="20" width="3" height="3" fill="#0a0808" />
      <rect x="3" y="20" width="3" height="1" fill="#5a5048" />
      <rect x="16" y="20" width="3" height="1" fill="#5a5048" />

      <!-- Gauntlets -->
      <rect x="2" y="23" width="4" height="2" fill="#1a1410" />
      <rect x="16" y="23" width="4" height="2" fill="#1a1410" />

      <!-- Whip haft -->
      <rect x="17" y="23" width="2" height="9" fill="#3a2418" />
      <rect x="18" y="23" width="1" height="9" fill="#5a3c1c" />

      <!-- Belt + studs + buckle -->
      <rect x="4" y="25" width="14" height="2" fill="#1a1410" />
      <rect x="4" y="25" width="14" height="1" fill="#3a2e22" />
      <rect x="10" y="25" width="2" height="2" fill="#8c6232" />
      <rect x="10" y="25" width="1" height="1" fill="#d4a850" />
      <circle cx="3" cy="26" r="1.5" fill="#5a5048" />
      <circle cx="3" cy="28" r="1.5" fill="#5a5048" />
      <circle cx="3" cy="26" r="0.6" fill="#1a1410" />
      <circle cx="3" cy="28" r="0.6" fill="#1a1410" />

      <!-- Faulds -->
      <rect x="5" y="27" width="12" height="3" fill="#0a0808" />
      <rect x="5" y="27" width="12" height="1" fill="#5a5048" />
      <rect x="7" y="28" width="1" height="2" fill="#3a3228" />
      <rect x="11" y="28" width="1" height="2" fill="#3a3228" />
      <rect x="14" y="28" width="1" height="2" fill="#3a3228" />

      <!-- Thighs -->
      <rect x="6" y="30" width="4" height="3" fill="#8c1818" />
      <rect x="12" y="30" width="4" height="3" fill="#8c1818" />
      <rect x="6" y="30" width="1" height="3" fill="#b5302c" />
      <rect x="12" y="30" width="1" height="3" fill="#b5302c" />

      <!-- Greaves -->
      <rect x="6" y="32" width="4" height="3" fill="#1a1410" />
      <rect x="12" y="32" width="4" height="3" fill="#1a1410" />
      <rect x="6" y="32" width="4" height="1" fill="#5a5048" />
      <rect x="12" y="32" width="4" height="1" fill="#5a5048" />

      <!-- Boots -->
      <rect x="5" y="34" width="6" height="2" fill="#0a0808" />
      <rect x="11" y="34" width="6" height="2" fill="#0a0808" />

      <!-- Whip lash flicked to the side -->
      <rect x="15" y="31" width="6" height="4" fill="#3a3228" opacity="0.9" />
      <rect x="16" y="32" width="4" height="2" fill="#5a5048" />
      <polygon points="15,31 13,33 15,33" fill="#3a3228" />
      <polygon points="21,31 23,33 21,33" fill="#3a3228" />
      <polygon points="15,35 13,33 15,33" fill="#3a3228" />
      <polygon points="21,35 23,33 21,33" fill="#3a3228" />
    </svg>
