<svg xmlns="http://www.w3.org/2000/svg" viewBox="0 0 24 40" shape-rendering="crispEdges" preserveAspectRatio="xMidYMax meet" aria-label="Priest of Lathander">
      <rect x="5" y="3" width="14" height="13" fill="#e8b840" />
      <rect x="4" y="6" width="16" height="11" fill="#e8b840" />
      <rect x="6" y="2" width="12" height="2" fill="#f4d260" />
      <rect x="7" y="4" width="3" height="4" fill="#f4d260" />
      <rect x="14" y="4" width="3" height="4" fill="#f4d260" />

      <rect x="8" y="7" width="8" height="9" fill="#f4d4a8" />
      <rect x="8" y="13" width="8" height="3" fill="#e8c098" />

      <rect x="9" y="10" width="2" height="2" fill="#1a1410" />
      <rect x="9" y="10" width="2" height="1" fill="#7a6856" />
      <rect x="10" y="11" width="1" height="1" fill="#3a8a3a" />
      <rect x="13" y="10" width="2" height="2" fill="#1a1410" />
      <rect x="13" y="10" width="2" height="1" fill="#7a6856" />
      <rect x="14" y="11" width="1" height="1" fill="#3a8a3a" />

      <rect x="10" y="14" width="4" height="1" fill="#a04030" />
      <rect x="9" y="14" width="1" height="1" fill="#a04030" />
      <rect x="14" y="14" width="1" height="1" fill="#a04030" />

      <rect x="10" y="16" width="4" height="2" fill="#e8c098" />

      <rect x="4" y="18" width="16" height="22" fill="#f0e0c0" />
      <rect x="4" y="18" width="16" height="2" fill="#e8c878" />

      <rect x="3" y="18" width="2" height="14" fill="#d8704a" />
      <rect x="19" y="18" width="2" height="14" fill="#d8704a" />
      <rect x="4" y="18" width="16" height="3" fill="#d8704a" />

      <circle cx="12" cy="26" r="3" fill="#f4d042" />
      <circle cx="12" cy="26" r="1.5" fill="#e88a30" />

      <rect x="11" y="22" width="2" height="1" fill="#f4d042" />
      <rect x="11" y="30" width="2" height="1" fill="#f4d042" />
      <rect x="7" y="25" width="1" height="2" fill="#f4d042" />
      <rect x="16" y="25" width="1" height="2" fill="#f4d042" />
      <rect x="8" y="22" width="1" height="1" fill="#f4d042" />
      <rect x="15" y="22" width="1" height="1" fill="#f4d042" />
      <rect x="8" y="30" width="1" height="1" fill="#f4d042" />
      <rect x="15" y="30" width="1" height="1" fill="#f4d042" />

      <rect x="4" y="33" width="16" height="2" fill="#d4a040" />
      <rect x="4" y="33" width="16" height="1" fill="#f4d042" />
</svg>
